# xmcd
#
# Track frame offsets: 
#        150
#        20748
#        53438
#        74436
#        96642
#        115459
#        143909
#        165622
#        178576
#        198122
#        214652
#        243249
#        268738
#        290219
#        314689
#        328214
#        350722
#
# Disc length: 4764 seconds
#
# Revision: 0
# Processed by: cddbd v1.5.2PL0 Copyright (c) Steve Scherf et al.
# Submitted via: ExactAudioCopy v1.3
#
DISCID=18129a11
DTITLE=Various Artist - Akella Presents - vol.166 - Blues-Rock  CD2
DYEAR=2018
DGENRE=Blues
TTITLE0=Dirty Dave Osti - Louisiana Outlaw
TTITLE1=Ryan McGarvey - Ain't Enough Whiskey
TTITLE2=Jay O'Rourke - Sumpthin' Good
TTITLE3=Sean Chambers - All Night Long
TTITLE4=The Cold Stares - Cold Black Water
TTITLE5=Bryce Janey - Brand New Day
TTITLE6=The Voodoo Hoodoo Blues Club - Runaway  My Personal Blues
TTITLE7=BloYaTop - Not Fade Away
TTITLE8=Sakis Dovolis Trio - Devil's Road
TTITLE9=The D.B. Walker Band - Drive
TTITLE10=Too Slim and The Taildraggers - Wish I Was Fishin
TTITLE11=Robin Barrett and Coyote Kings - Howl
TTITLE12=George Hotte Miller - Gotta Move On
TTITLE13=Bob Daisley and Stan Webb - Torn Inside
TTITLE14=Billy F. Gibbons - Rollin' And Tumblin'
TTITLE15=Van Galen Band - Peace of Mind
TTITLE16=The D.B. Walker Band - What To Do (Reprise)
EXTD=
EXTT0=
EXTT1=
EXTT2=
EXTT3=
EXTT4=
EXTT5=
EXTT6=
EXTT7=
EXTT8=
EXTT9=
EXTT10=
EXTT11=
EXTT12=
EXTT13=
EXTT14=
EXTT15=
EXTT16=
PLAYORDER=
